<svg xmlns="http://www.w3.org/2000/svg" viewBox="0 0 1664.36 561"><defs><style>.cls-1{fill:#eceff1;}</style></defs><title>dd-face-dbd-lt</title><g id="Layer_2" data-name="Layer 2"><g id="Layer_1-2" data-name="Layer 1"><g id="Layer_2-2" data-name="Layer 2"><g id="Layer_15" data-name="Layer 15"><path class="cls-1" d="M443,238.34q-23.4-17.59-51-17.6h-8.91q-10.71,0-14.27,3.78a7.35,7.35,0,0,0-2.11,3.12c-.23.9-.53,2.64-.89,5.24a46.89,46.89,0,0,0-.56,6.8V249l-.45,42.78-.22,47.47q0,10.47,2.23,14.93a6.56,6.56,0,0,0,4.23,2.89q3.12.9,7.13,2l9.25,2.56a52.76,52.76,0,0,0,13.71,1.45h4.45q15.15,0,25.85-4.34A65.85,65.85,0,0,0,451.94,345q16.5-15.82,16.49-51.25a73,73,0,0,0-7-32.31A63.15,63.15,0,0,0,443,238.34Z"/><path class="cls-1" d="M215.66,358.79q10.69,4.33,25.85,4.34H246a52.76,52.76,0,0,0,13.71-1.45l9.25-2.56,7.13-2a6.56,6.56,0,0,0,4.23-2.89q2.24-4.46,2.23-14.93l-.22-47.47L281.84,249v-9.36a46.89,46.89,0,0,0-.56-6.8c-.36-2.6-.66-4.34-.89-5.24a7.41,7.41,0,0,0-2.11-3.12q-3.57-3.78-14.27-3.78H255.1q-27.63,0-51,17.6a63.19,63.19,0,0,0-18.39,23.18,73,73,0,0,0-7,32.31q0,35.43,16.49,51.25A65.67,65.67,0,0,0,215.66,358.79Z"/><path class="cls-1" d="M280.49,0C125.58,0,0,125.58,0,280.49S125.58,561,280.49,561,561,435.39,561,280.49,435.39,0,280.49,0ZM178.67,344.3a76.59,76.59,0,0,1-9.81-13.59,60.6,60.6,0,0,1-7-19.83,157.22,157.22,0,0,1-2.12-28,61.14,61.14,0,0,1,8-30.64,66.64,66.64,0,0,1,20.94-22.84,102.46,102.46,0,0,1,59.06-18.28l43.45.89h19.39a76.8,76.8,0,0,1,9.47.34,2.16,2.16,0,0,1,1.89,2.41v0a4.11,4.11,0,0,1-1.45,3.34,5.8,5.8,0,0,1-2.89,1.45c-1,.15-2.71.3-5.24.45s-5,1.52-7.46,4.12-3.68,5.16-3.68,7.69l-.22,56.6.22,60.39a15,15,0,0,0,3,8.58,16.15,16.15,0,0,0,6.57,5.91c1.21.43,2.44.8,3.68,1.11a7.76,7.76,0,0,1,3.34,1.45,3.5,3.5,0,0,1,.78,2.56c0,1.93-1.78,2.89-5.35,2.9q-1.11,0-7.8-.56T291,370.26l-53.48,1.12a74.92,74.92,0,0,1-26.08-4.68q-12.69-4.68-20.28-10.92A134.3,134.3,0,0,1,178.67,344.3Zm269.8,107.22c-5.3,3-10.72,5.8-16.21,8.45a286.8,286.8,0,0,1-34,13.65c-2.91,1-5.84,1.86-8.78,2.76s-5.92,1.68-8.91,2.42c-6,1.59-12,2.81-18.08,4-3,.57-6.1,1-9.18,1.46s-6.16.76-9.24,1.15c-3.11.23-6.21.55-9.33.67l-4.68.23-4.69.09c-25.13.15-49.78-4.58-73.09-12.23a277.58,277.58,0,0,1-34-13.82c-5.48-2.69-10.87-5.53-16.14-8.61a165.76,165.76,0,0,1-15.32-9.94,690.54,690.54,0,0,0,69.11,18.89c23.06,4.88,46.29,8.06,69.29,7.89a285.35,285.35,0,0,0,34.68-2.5c11.58-1.47,23.15-3.55,34.71-6s23.09-5.27,34.63-8.34,23.07-6.42,34.7-10a171.4,171.4,0,0,1-15.47,9.78Zm29.76-120.81a76.59,76.59,0,0,1-9.81,13.59A133.59,133.59,0,0,1,456,355.78q-7.59,6.24-20.28,10.92a74.92,74.92,0,0,1-26.08,4.68l-53.48-1.12q-7.8,0-14.48.56t-7.8.56q-5.36,0-5.35-2.9a3.5,3.5,0,0,1,.78-2.56,7.76,7.76,0,0,1,3.34-1.45c1.24-.31,2.47-.68,3.68-1.11a16.15,16.15,0,0,0,6.57-5.91,15,15,0,0,0,3-8.58l.22-60.39-.22-56.6c0-2.53-1.22-5.09-3.68-7.69s-4.94-4-7.46-4.12-4.27-.3-5.24-.45a5.83,5.83,0,0,1-2.9-1.45,4.13,4.13,0,0,1-1.44-3.34,2.18,2.18,0,0,1,1.85-2.45h0a76.8,76.8,0,0,1,9.47-.34h19.39l43.45-.89a102.46,102.46,0,0,1,59.06,18.28,66.64,66.64,0,0,1,20.94,22.84,61.14,61.14,0,0,1,8,30.64,157.22,157.22,0,0,1-2.12,28,61,61,0,0,1-7,19.8Z"/><path class="cls-1" d="M699.71,473.55l.93-19q0-7.65,1.05-27.37t1-33.88V336q0-21.11-10.44-21.11H690c-2.48,0-3.71-.77-3.71-2.32a4.73,4.73,0,0,1,2.32-4,31.21,31.21,0,0,1,7.42-3.36q5.1-1.74,6-2.09c.6-.23,2.15-1,4.64-2.2q7.89-3.71,9.28-3.71a3.57,3.57,0,0,1,2.56,1.16,4.08,4.08,0,0,1,1.16,3V306l-.24,28.31v42.92c0,5.56.54,8.35,1.63,8.35.61,0,1.54-.81,2.78-2.44s2.75-3.4,4.53-5.33,5.22-3.72,10.32-5.34a63.58,63.58,0,0,1,19-2.44q20.65,0,32.13,14.39t11.49,33.64q0,10.9-5.69,25.17T780.22,465Q766.77,475.17,748,475.17a45.54,45.54,0,0,1-17.63-3.36q-8.13-3.36-12.18-6.73a43.55,43.55,0,0,0-4.29-3.37q-.93,0-4.53,7.43t-6.84,7.42C700.64,476.56,699.71,475.55,699.71,473.55ZM719.43,442q0,6.27,9.17,15.55t24.94,9.28q15.76,0,24.24-10.79t8.47-27.72q0-16.94-11-31.32t-29.83-14.4q-10.9,0-18.45,6.27T719.43,400Z"/><path class="cls-1" d="M851,516.7l-10,.23q-4.41,0-4.41-3,0-.69,5.22-7.19a118,118,0,0,0,10.56-16q5.34-9.51,5.34-16.82t-13.23-36.07q-13.22-28.77-23-47.1a29.8,29.8,0,0,0-5.22-7.19q-2.67-2.55-4.29-2.78-3.71-.46-3.71-3.48c0-2,1.54-3,4.64-3l24.82.46L851,374.3a5.32,5.32,0,0,1,2.9.81c.85.55,1.27,1.13,1.27,1.74q0,4.18-5.56,4.18h-3.48q-3.72,0-3.72,5.8,0,7,12.3,33.41,1.86,3.94,5.57,12.52,7,15.78,8.35,15.78t10.79-26.68q9.39-26.67,9.39-31.78t-2.2-7.2a7,7,0,0,0-5-2.08q-7.18.46-7.19-3.95,0-2.78,4.41-2.78l16.7.23,14.42-.3q4.88,0,4.88,3c0,1.55-1.36,2.67-4.06,3.37s-4.53,1.66-5.46,2.9q-3.71,5.34-12.52,29.23l-20.65,55q-2.55,6.74-5.1,13.81t-4.18,11.48l-3.25,8.82c-1.08,2.93-1.93,5.22-2.55,6.84s-1.24,3.13-1.86,4.53q-1.86,3.71-3.48,3.71Z"/><path class="cls-1" d="M995,387l-.23-58.93c0-2.63-1.27-5.29-3.83-8s-5.14-4.14-7.77-4.29-4.45-.31-5.45-.47a6,6,0,0,1-3-1.51,4.3,4.3,0,0,1-1.5-3.48,2.25,2.25,0,0,1,1.94-2.54h.06a79.2,79.2,0,0,1,9.86-.35h20.18l45.24-.92a106.65,106.65,0,0,1,61.48,19,69.34,69.34,0,0,1,21.81,23.78,63.58,63.58,0,0,1,8.35,31.9,163.25,163.25,0,0,1-2.2,29.12,63.25,63.25,0,0,1-7.31,20.64,80,80,0,0,1-10.21,14.16,138.6,138.6,0,0,1-13,11.94q-7.89,6.51-21.11,11.37a78.13,78.13,0,0,1-27.15,4.87l-55.68-1.16q-8.12,0-15.08.58c-4.64.39-7.34.58-8.12.58q-5.56,0-5.56-3a3.64,3.64,0,0,1,.81-2.67A8.28,8.28,0,0,1,981,466.1a36,36,0,0,0,3.83-1.16,16.78,16.78,0,0,0,6.84-6.15,15.66,15.66,0,0,0,3.13-8.93Zm19.49,3.48-.23,49.42q0,10.91,2.32,15.54a6.92,6.92,0,0,0,4.41,3c2.16.62,4.64,1.31,7.42,2.08l9.63,2.67a54.85,54.85,0,0,0,14.27,1.51H1057q15.76,0,26.91-4.52a68.48,68.48,0,0,0,21.34-14.27q17.18-16.47,17.17-53.36a76.25,76.25,0,0,0-7.31-33.64,65.88,65.88,0,0,0-19.11-24.1q-24.36-18.33-53.12-18.33h-9.28q-11.14,0-14.85,3.95a7.86,7.86,0,0,0-2.21,3.24q-.35,1.4-.92,5.46a50.68,50.68,0,0,0-.58,7.07V346Z"/><path class="cls-1" d="M1175.65,464.5q-14.26-12.53-14.26-36.31t13.1-39.79q13.11-16,34-16a44,44,0,0,1,17.75,3.48,34.93,34.93,0,0,1,12.41,8.47,56.57,56.57,0,0,1,7.42,10.56q5.1,9.51,5.11,14.38,0,4.18-9.51,4.18H1182c-1.24,0-2,.11-2.2.35a3.88,3.88,0,0,0-.35,2.2q0,21.81,11.72,34.34t27.49,12.52a42.86,42.86,0,0,0,19.83-5.22q10.1-5.22,10.56-5.22c1.54,0,2.32.7,2.32,2.09q0,2.79-5.1,7.54a71.48,71.48,0,0,1-9.75,7.77q-11.13,7.2-26.21,7.2Q1189.91,477,1175.65,464.5Zm8.24-56.61,40.83-1.39c2.16,0,3.52-.19,4.06-.58a2.58,2.58,0,0,0,.81-2.21q0-7-6.49-16.24t-18.1-9.28q-11.61,0-17.86,9.17t-6.27,17.28C1180.87,406.81,1181.88,407.9,1183.89,407.89Z"/><path class="cls-1" d="M1336.54,379.59l.93,13.92c0,2.63-.31,4.4-.93,5.33a3,3,0,0,1-2.67,1.39q-1.74,0-3.71-3.36t-4.41-7.31a23.57,23.57,0,0,0-7.88-7.31,23.23,23.23,0,0,0-12.42-3.36q-7,0-11.36,3.36c-2.94,2.25-4.41,4.68-4.41,7.31a24.06,24.06,0,0,0,.69,6.38,10.22,10.22,0,0,0,2.44,4.29q1.74,1.86,3,3.14a15.11,15.11,0,0,0,4.29,2.66c2,.93,3.51,1.59,4.52,2s2.67,1,5,2q21.11,7.43,27.14,14.5t6,20.3q0,13.21-12.29,24.36-8.35,7.19-23,7.19-10,0-22.27-4.87c-2.32-.93-3.68-1.43-4.06-1.51a15.39,15.39,0,0,1-1.86-.58,14.7,14.7,0,0,0-1.85-.58,6.29,6.29,0,0,1-1.51-.58,5.53,5.53,0,0,1-1.28-.81,7.08,7.08,0,0,1-.81-1,7.52,7.52,0,0,1-.69-3.71V442.46a8.13,8.13,0,0,1,1-4.29,3.23,3.23,0,0,1,2.9-1.74,3.15,3.15,0,0,1,2.67,1,12.15,12.15,0,0,1,1.51,4.29,20.85,20.85,0,0,0,1.39,4.64q8.58,21.34,24.13,21.35a26.52,26.52,0,0,0,13.68-3.83q6.49-3.83,6.5-12.07t-5.34-13.34a38,38,0,0,0-13-8q-7.65-2.89-15.31-6a34,34,0,0,1-13-9.28q-5.34-6.15-5.34-15.43a24.9,24.9,0,0,1,10.44-20.88,37.23,37.23,0,0,1,23-7.89q12.53,0,19,2t7.78,3.6A5.13,5.13,0,0,1,1336.54,379.59Z"/><path class="cls-1" d="M1388.51,473.55,1372,474q-9.27,0-9.28-3.13t3.48-4.29a3.74,3.74,0,0,0,.93-.24q5.34-1.84,7-5.56t1.63-36V404.41a28.68,28.68,0,0,0-1.63-10.67c-1.08-2.63-2.09-4.25-3-4.87a13.33,13.33,0,0,0-4.76-1.51,28.28,28.28,0,0,1-4.87-1.16,2,2,0,0,1-1.51-1.86,3,3,0,0,1,.58-2,7.26,7.26,0,0,1,2.32-1.51c1.16-.54,2.36-1,3.6-1.51a82.11,82.11,0,0,0,10.67-3.71c2.78-1.23,4.91-2.15,6.38-2.78a20.86,20.86,0,0,0,2.9-1.39,9.82,9.82,0,0,1,3.94-.7q3.48,0,3.48,4.41l-1.39,11.13v63.57q0,7,2.2,10.91c1.47,2.61,3,4.23,4.64,4.87a20.15,20.15,0,0,0,5.69,1.16c2.16.15,3.55.23,4.17.23q3.25.47,3.25,3.25,0,3.94-3.94,3.94L1405,474Zm-12-129.46c-2.25-3.25-3.37-5.91-3.37-8s1.35-4.79,4.06-8.12,5.27-5,7.66-5,4.76,1.59,7.08,4.75,3.48,6,3.48,8.47-1.48,5.22-4.41,8.24-5.11,4.52-6.5,4.52q-4.58,0-8-4.86Z"/><path class="cls-1" d="M1449.06,518.67a38.29,38.29,0,0,1-16.36-8q-7.31-6-7.3-13.92t4.17-12.18a31.47,31.47,0,0,1,8.35-6.38q4.18-2.1,4.18-2.67c0-.39-.39-.89-1.16-1.51s-1.7-1.32-2.79-2.09q-3.7-3-3.71-10.09a23.55,23.55,0,0,1,3-12.18,30.13,30.13,0,0,1,6-7.66q3-2.55,3-3.36c0-.54-.81-1.51-2.44-2.9s-3.44-3-5.45-4.76-3.83-4.71-5.45-8.81a34.85,34.85,0,0,1-2.44-13,40.34,40.34,0,0,1,1.74-12.3,43.91,43.91,0,0,1,5.8-11.37q4.07-5.91,12.53-9.63a46.48,46.48,0,0,1,18.79-3.71q10.32,0,16.82,2.32a39.07,39.07,0,0,1,9.63,4.64c2.09,1.55,3.59,2.32,4.52,2.32s4.72-1.39,11.37-4.17c2.16-.93,3.79-3,4.87-6.27s2.24-4.87,3.48-4.87q3,0,3,1.86a48.67,48.67,0,0,1-1.63,11.94,34.37,34.37,0,0,1-3.94,10q-2.33,3.6-9,6.38a35.3,35.3,0,0,1,2.55,11.6A32.71,32.71,0,0,1,1500.1,433Q1489,443.2,1473,443.2a60.57,60.57,0,0,1-11.48-1,57.33,57.33,0,0,0-6.5-1,13,13,0,0,0-2.9.46c-1.23.31-2.78,1.39-4.63,3.25a10.32,10.32,0,0,0-2.79,7.65q0,7.89,7.19,10t23.9,2.09h10.67q33.63,0,33.64,20.41,0,7.2-1.62,10.91-4.41,11.36-18.1,18.09t-31.78,6.73A91.9,91.9,0,0,1,1449.06,518.67Zm-10.21-24.94q0,10.2,8.59,15.43t22,5.22a53.64,53.64,0,0,0,24.94-5.92q11.49-5.91,11.49-15.19,0-8.36-8.12-10.44-6.27-1.4-17.63-1.4H1478a124.87,124.87,0,0,1-18.1-1.62l-10.44-1.62c-1.54,0-3.71,1.54-6.49,4.64a15.75,15.75,0,0,0-4.15,10.9Zm31.44-116.46a19.55,19.55,0,0,0-15.89,7.3q-6,7.32-6,21t6.61,23q6.62,9.29,16.82,9.28t15.78-8q5.57-8,5.57-20.3a40,40,0,0,0-6.5-22.27Q1480.15,377.28,1470.29,377.27Z"/><path class="cls-1" d="M1587.1,472.62l-16.94-.93q-6,0-16,.46l-10,.47c-2.32,0-3.48-.7-3.48-2.09s.38-2.24,1.16-2.55a12.65,12.65,0,0,1,2.9-.7,7.24,7.24,0,0,0,3.36-1.39q4.41-2.79,4.87-16.82t.47-18.44V397.22c0-5-.9-8.27-2.67-10a10.15,10.15,0,0,0-7.31-2.55h-2.32q-4.41,0-4.41-2.55c0-1.55,1.66-2.55,5-3a60.33,60.33,0,0,0,7.89-1.51,71.27,71.27,0,0,0,7.65-2.78c3.17-1.31,5.72-2.44,7.66-3.36a12.17,12.17,0,0,1,3.83-1.4h.46c1.39,0,2.09.93,2.09,2.79l-.46,10c0,4,.3,6,.92,6a2.52,2.52,0,0,0,1.86-1.16,30.3,30.3,0,0,1,9.28-8.36q10.44-6.48,19.95-6.49a46.4,46.4,0,0,1,16.94,2.9,32.51,32.51,0,0,1,11.6,7.19,39.27,39.27,0,0,1,7,9.86,42.14,42.14,0,0,1,4.64,19v2.32l.23,12.3v23.66q0,8.82,2.44,12.18t11.71,4.76c3.09.46,4.63,1.62,4.64,3.48,0,1.55-1.55,2.33-4.64,2.32l-19-1.16-17.87.93c-3.09,0-4.63-1-4.64-3,0-1.39.93-2.32,2.79-2.78l3-.7q5.1-1.62,5.11-15.54V419.26q0-17.86-8.82-27t-20-9.16q-11.13,0-18.56,5.33t-9,10q-1.62,4.63-1.62,35.49v8.82q0,11.61,2.43,17.17t10.79,6.26a28.13,28.13,0,0,1,5.92.81c2.39.55,3.58,1.44,3.59,2.67Q1591.5,472.62,1587.1,472.62Z"/><path class="cls-1" d="M719.36,168.61,719,86.18q0-5.52-5.36-11.2t-10.87-6q-5.52-.32-7.63-.65A8.59,8.59,0,0,1,691,66.22a6,6,0,0,1-2.11-4.87q0-3.08,2.76-3.57t13.79-.48h28.24L796.92,56a149.19,149.19,0,0,1,86,26.61,97.18,97.18,0,0,1,30.5,33.27A88.92,88.92,0,0,1,925.1,160.5q0,24-3.08,40.73T911.8,230.11a111.66,111.66,0,0,1-14.28,19.8,194.25,194.25,0,0,1-18.18,16.71q-11,9.09-29.53,15.9a108.83,108.83,0,0,1-38,6.82L734,287.72q-11.36,0-21.09.81t-11.36.81q-7.78,0-7.79-4.22a5.08,5.08,0,0,1,1.14-3.73c.75-.76,2.38-1.46,4.87-2.11a52.32,52.32,0,0,0,5.35-1.62c3.46-1.51,6.65-4.39,9.57-8.6s4.39-8.39,4.39-12.5Zm27.26,4.87-.32,69.13q0,15.25,3.24,21.74c1.08,1.95,3.14,3.35,6.17,4.22s6.49,1.84,10.38,2.92l13.47,3.73c5.08,1.4,11.73,2.11,20,2.11H806q22.07,0,37.65-6.33t29.85-20q24-23,24-74.64,0-26-10.22-47.06T860.53,95.59Q826.45,70,786.21,70h-13q-15.57,0-20.77,5.52A10.92,10.92,0,0,0,749.38,80c-.33,1.3-.76,3.85-1.3,7.63a71.44,71.44,0,0,0-.81,9.9v13.63Z"/><path class="cls-1" d="M993.26,293.23q-38.29,0-38.29-32.45,0-23.37,19.47-32.13,16.23-6.81,49.65-12.33a12.82,12.82,0,0,1,2.6-.49c1.08-.1,2.22-.27,3.41-.48a24,24,0,0,0,2.76-.65c1.51-.65,2.27-2.16,2.27-4.55l.65-16.87q0-18.51-10.71-26.78t-20.77-8.27q-23.37,0-23.37,19.47l1.3,11.68q0,6.5-5.84,6.49a35.45,35.45,0,0,1-10.06-1.62q-10.07-3.24-10.06-11,0-12.66,17-24.18t34.23-11.52q17.2,0,26.94,3.24t14.44,7.31a26.33,26.33,0,0,1,7.3,10.87q3.24,8.11,3.25,25.47t-.81,30.83q-.82,13.47-.81,24.51t2.59,18q2.6,7,6.17,8.92a18.07,18.07,0,0,0,7.14,2.27q8.76.66,8.76,5.2,0,6.81-20.45,6.81a23.24,23.24,0,0,1-14.44-4.54,32.64,32.64,0,0,1-8.6-8.93c-1.73-2.92-2.71-4.38-2.92-4.38a11.19,11.19,0,0,0-2.59,2.11,67.81,67.81,0,0,1-6.33,5,96.57,96.57,0,0,1-9.25,5.84A47.66,47.66,0,0,1,993.26,293.23Zm39.6-72.37-3.25.65c-5,.87-8.11,1.41-9.41,1.62s-4.33.87-9.09,2a55.85,55.85,0,0,0-9.89,2.92c-1.85.87-4.44,2.22-7.79,4.06a23.41,23.41,0,0,0-7.31,5.68,34.82,34.82,0,0,0-5.84,19.15,23,23,0,0,0,6.49,16.71q6.5,6.66,16.72,6.65t16.22-2.59a25.46,25.46,0,0,0,8.93-5.85,22.26,22.26,0,0,0,4.54-8.76,53.72,53.72,0,0,0,2-15.9V223.78c0-1.94-.81-2.92-2.32-2.92Z"/><path class="cls-1" d="M1101.34,170.56l-3.57-.32c-4.12,0-6.17-1.73-6.17-5.2q0-3.57,4.38-5.35t16.23-5.52a174.88,174.88,0,0,0,18.66-6.81q6.81-3.09,8.11-3.09c2.81,0,4.22,2.17,4.22,6.49l-.32,8.77c0,7.78.27,12.06.81,12.81s1.08,1.14,1.62,1.14,2.22-2.16,5-6.49a62.44,62.44,0,0,1,12-13.14q7.79-6.66,15.41-6.66t15.74,5.36q8.11,5.35,8.12,10.71a19.64,19.64,0,0,1-2.6,9.9q-4.55,7.78-8.44,7.78-2.6,0-9.25-3.89a29.91,29.91,0,0,0-15.41-3.89q-8.76,0-16.39,7.14t-7.63,13V227l.33,28.23.32,5.85a16.51,16.51,0,0,0,4.55,11.68q4.53,4.86,8.6,5.52c2.7.43,5,.76,7,1s3.46.38,4.55.49a16.79,16.79,0,0,1,3.57.81c2.37.43,3.57,2,3.57,4.7s-1.3,4.06-3.9,4.06l-27.58-1.62-33.75,1.62c-3.9,0-6.07-.44-6.5-1.3a5.72,5.72,0,0,1-.65-2.6q0-4.2,4.22-5.51,8.44-1.95,10.23-8.28t1.78-27.1l-.32-52.25-.33-9.73a15,15,0,0,0-1-5.84Q1114,170.57,1101.34,170.56Z"/><path class="cls-1" d="M1223,170.56l-3.57-.32c-4.12,0-6.17-1.73-6.17-5.2q0-3.57,4.38-5.35t16.23-5.52a174.88,174.88,0,0,0,18.66-6.81q6.81-3.09,8.11-3.09c2.81,0,4.22,2.17,4.22,6.49l-.32,8.77c0,7.78.27,12.06.81,12.81s1.08,1.14,1.62,1.14,2.22-2.16,5-6.49a62.44,62.44,0,0,1,12-13.14q7.79-6.66,15.41-6.66t15.74,5.36q8.12,5.35,8.12,10.71a19.64,19.64,0,0,1-2.6,9.9q-4.55,7.78-8.44,7.78-2.6,0-9.25-3.89a29.91,29.91,0,0,0-15.41-3.89q-8.76,0-16.39,7.14t-7.63,13V227l.33,28.23.32,5.85a16.51,16.51,0,0,0,4.55,11.68q4.53,4.86,8.6,5.52c2.7.43,5,.76,7,1s3.46.38,4.55.49a16.79,16.79,0,0,1,3.57.81c2.37.43,3.57,2,3.57,4.7s-1.3,4.06-3.9,4.06l-27.58-1.62-33.75,1.62c-3.9,0-6.06-.44-6.5-1.3a5.87,5.87,0,0,1-.64-2.6q0-4.2,4.21-5.51,8.45-1.95,10.23-8.28t1.78-27.1l-.32-52.25-.33-9.73a15,15,0,0,0-1-5.84Q1235.71,170.57,1223,170.56Z"/><path class="cls-1" d="M1360.48,277q-20-17.53-20-50.79t18.33-55.66q18.33-22.4,47.55-22.39a61.71,61.71,0,0,1,24.83,4.86q11.19,4.88,17.36,11.85A79.61,79.61,0,0,1,1459,179.65q7.14,13.31,7.14,20.12,0,5.83-13.3,5.84H1369.4c-1.73,0-2.76.16-3.08.49s-.49,1.35-.49,3.08q0,30.51,16.39,48t38.46,17.53q13.62,0,27.75-7.31t14.76-7.3c2.16,0,3.25,1,3.25,2.92,0,2.6-2.39,6.12-7.14,10.55a100.45,100.45,0,0,1-13.63,10.87q-15.59,10.06-36.68,10.06Q1380.43,294.53,1360.48,277ZM1372,197.82l57.12-1.95q4.53,0,5.67-.81c.76-.54,1.14-1.56,1.14-3.08q0-9.73-9.09-22.72t-25.31-13q-16.23,0-25,12.82t-8.76,24.18C1367.78,196.31,1369.18,197.82,1372,197.82Z"/><path class="cls-1" d="M1559.57,288.37l-23.69-1.3q-8.43,0-22.39.65l-14,.65q-4.87,0-4.87-2.93c0-1.94.54-3.13,1.62-3.56a16.75,16.75,0,0,1,4.06-1,10.14,10.14,0,0,0,4.7-1.95q6.16-3.89,6.82-23.52t.65-25.8V182.89q0-10.38-3.73-13.95t-10.23-3.57h-3.24c-4.12,0-6.17-1.19-6.17-3.57,0-2.16,2.32-3.57,7-4.22a87.48,87.48,0,0,0,11-2.11,97.19,97.19,0,0,0,10.71-3.9q6.64-2.74,10.71-4.7c2.71-1.31,4.5-2,5.36-2h.65c1.94,0,2.92,1.3,2.92,3.9l-.65,14q0,8.44,1.3,8.44a3.55,3.55,0,0,0,2.59-1.62,42.65,42.65,0,0,1,13-11.69q14.61-9.08,27.91-9.08a64.91,64.91,0,0,1,23.69,4.05q10.39,4.06,16.23,10.06a54.65,54.65,0,0,1,9.74,13.8,58.93,58.93,0,0,1,6.49,26.61v3.24l.32,17.2v33.11q0,12.33,3.41,17t16.39,6.66c4.32.65,6.49,2.27,6.49,4.86,0,2.17-2.17,3.25-6.49,3.25L1631.26,287l-25,1.3q-6.49,0-6.49-4.22,0-2.92,3.89-3.9l4.22-1Q1615,277,1615,257.48V213.72q0-25-12.33-37.81t-27.91-12.81q-15.58,0-26,7.46t-12.65,13.95q-2.28,6.51-2.27,49.66V246.5q0,16.23,3.4,24t15.1,8.76a39.12,39.12,0,0,1,8.27,1.13c3.35.77,5,2,5,3.74Q1565.74,288.38,1559.57,288.37Z"/></g></g></g></g></svg>